<svg width="132" height="27" viewBox="0 0 132 27" fill="none" xmlns="http://www.w3.org/2000/svg">
<circle cx="5.5" cy="21.2188" r="5.5" fill="#E5E5E5"/>
<circle cx="5.5" cy="13.2188" r="5.5" fill="#E5E5E5"/>
<mask id="mask0" mask-type="alpha" maskUnits="userSpaceOnUse" x="14" y="0" width="118" height="27">
<path d="M20.1523 26.9824C19.3438 26.9824 18.541 26.8945 17.7441 26.7188C16.9473 26.543 16.2852 26.291 15.7578 25.9629C15.2422 25.6348 14.9844 25.2598 14.9844 24.8379C14.9844 24.5801 15.0781 24.2578 15.2656 23.8711C15.4531 23.4844 15.6758 23.1504 15.9336 22.8691C16.2031 22.5762 16.4375 22.4297 16.6367 22.4297C16.7422 22.4297 16.9707 22.5117 17.3223 22.6758C17.7324 22.8633 18.125 23.0156 18.5 23.1328C18.875 23.25 19.3027 23.3086 19.7832 23.3086C20.3809 23.3086 20.832 23.1973 21.1367 22.9746C21.4414 22.752 21.5938 22.4238 21.5938 21.9902C21.5938 21.6621 21.5 21.3926 21.3125 21.1816C21.1367 20.959 20.9082 20.7773 20.627 20.6367C20.3457 20.4961 19.9473 20.3262 19.4316 20.127L18.9219 19.9336C18.2539 19.6758 17.668 19.3828 17.1641 19.0547C16.6602 18.7266 16.2324 18.252 15.8809 17.6309C15.5293 16.998 15.3535 16.2012 15.3535 15.2402C15.3535 14.1738 15.582 13.2598 16.0391 12.498C16.5078 11.7246 17.1699 11.1387 18.0254 10.7402C18.8809 10.3301 19.8887 10.125 21.0488 10.125C21.7168 10.125 22.4141 10.1895 23.1406 10.3184C23.8672 10.4473 24.4766 10.6465 24.9688 10.916C25.4727 11.1855 25.7246 11.5254 25.7246 11.9355C25.7246 12.1699 25.6484 12.4863 25.4961 12.8848C25.3555 13.2832 25.1797 13.6348 24.9688 13.9395C24.7578 14.2441 24.5586 14.3965 24.3711 14.3965C24.3125 14.3965 24.1484 14.3438 23.8789 14.2383C23.5156 14.0859 23.1641 13.9688 22.8242 13.8867C22.4961 13.793 22.1152 13.7461 21.6816 13.7461C20.5801 13.7461 20.0293 14.1094 20.0293 14.8359C20.0293 15.1641 20.1289 15.4453 20.3281 15.6797C20.5391 15.9141 20.7969 16.1074 21.1016 16.2598C21.4062 16.4121 21.834 16.5938 22.3848 16.8047C23.0176 17.0625 23.4102 17.2266 23.5625 17.2969C24.3828 17.707 25.0391 18.252 25.5312 18.9316C26.0352 19.5996 26.2871 20.4961 26.2871 21.6211C26.2871 22.6875 26.0469 23.625 25.5664 24.4336C25.0859 25.2422 24.3828 25.8691 23.457 26.3145C22.5312 26.7598 21.4297 26.9824 20.1523 26.9824Z" fill="black"/>
<path d="M33.8809 26.9824C32.3926 26.9824 31.2559 26.5664 30.4707 25.7344C29.6973 24.8906 29.3105 23.6133 29.3105 21.9023V14.0273H28.8184C28.4902 14.0273 28.25 13.9043 28.0977 13.6582C27.957 13.4121 27.8867 13.0137 27.8867 12.4629V11.9355C27.8867 11.3848 27.957 10.9863 28.0977 10.7402C28.25 10.4941 28.4902 10.3711 28.8184 10.3711H29.3105L29.7148 7.40039C29.8086 6.74414 30.3711 6.41602 31.4023 6.41602H32.3867C32.9258 6.41602 33.3184 6.49805 33.5645 6.66211C33.8223 6.82617 33.9512 7.07227 33.9512 7.40039V10.3711H35.4805C35.8086 10.3711 36.043 10.4941 36.1836 10.7402C36.3359 10.9863 36.4121 11.3848 36.4121 11.9355V12.4629C36.4121 13.0137 36.3359 13.4121 36.1836 13.6582C36.043 13.9043 35.8086 14.0273 35.4805 14.0273H33.9512V21.9551C33.9512 22.4355 34.0332 22.7812 34.1973 22.9922C34.373 23.2031 34.6602 23.3086 35.0586 23.3086C35.1758 23.3086 35.334 23.291 35.5332 23.2559C35.7324 23.209 35.8555 23.1855 35.9023 23.1855C36.0898 23.1855 36.2539 23.3438 36.3945 23.6602C36.5469 23.9648 36.6641 24.3047 36.7461 24.6797C36.8398 25.0547 36.8867 25.3066 36.8867 25.4355C36.8867 26.4668 35.8848 26.9824 33.8809 26.9824Z" fill="black"/>
<path d="M43.5664 26.9824C41.9727 26.9824 40.8008 26.5664 40.0508 25.7344C39.3125 24.8906 38.9434 23.7773 38.9434 22.3945C38.9434 21.3516 39.1602 20.4141 39.5938 19.582C40.0273 18.7383 40.9062 18.0293 42.2305 17.4551C43.5547 16.8809 45.4473 16.5938 47.9082 16.5938V15.5566C47.9082 14.9473 47.7148 14.4961 47.3281 14.2031C46.9414 13.9102 46.3262 13.7637 45.4824 13.7637C44.7793 13.7637 44.1758 13.8398 43.6719 13.9922C43.168 14.1328 42.623 14.3262 42.0371 14.5723C41.7324 14.7129 41.5449 14.7832 41.4746 14.7832C41.2637 14.7832 41.0293 14.625 40.7715 14.3086C40.5254 13.9922 40.3086 13.6289 40.1211 13.2188C39.9336 12.8086 39.8398 12.498 39.8398 12.2871C39.8398 11.9238 40.0977 11.5781 40.6133 11.25C41.1406 10.9102 41.8613 10.6406 42.7754 10.4414C43.6895 10.2305 44.7031 10.125 45.8164 10.125C48.1602 10.125 49.8652 10.5938 50.9316 11.5312C51.998 12.457 52.5312 13.7285 52.5312 15.3457V21.1992C52.5312 22.1719 52.5547 22.9277 52.6016 23.4668C52.6602 24.0059 52.7363 24.5391 52.8301 25.0664C52.8887 25.3828 52.918 25.6055 52.918 25.7344C52.918 25.9688 52.6953 26.1621 52.25 26.3145C51.8164 26.4668 51.3184 26.5781 50.7559 26.6484C50.1934 26.7188 49.7422 26.7539 49.4023 26.7539C49.0391 26.7539 48.7754 26.6016 48.6113 26.2969C48.459 25.9805 48.3359 25.5527 48.2422 25.0137C48.2305 24.9434 48.2188 24.873 48.207 24.8027C48.1953 24.7324 48.1777 24.6621 48.1543 24.5918C48.0371 24.8145 47.7852 25.1133 47.3984 25.4883C47.0234 25.8633 46.5078 26.209 45.8516 26.5254C45.1953 26.8301 44.4336 26.9824 43.5664 26.9824ZM45.0957 23.3086C45.6816 23.3086 46.2324 23.127 46.748 22.7637C47.2637 22.3887 47.6504 21.9141 47.9082 21.3398V19.6172C44.9902 19.6172 43.5312 20.3848 43.5312 21.9199C43.5312 22.3301 43.666 22.6641 43.9355 22.9219C44.2168 23.1797 44.6035 23.3086 45.0957 23.3086Z" fill="black"/>
<path d="M63.8516 26.9824C61.1914 26.9824 59.2168 26.2969 57.9277 24.9258C56.6387 23.543 55.9941 21.4512 55.9941 18.6504C55.9941 15.8262 56.6445 13.6992 57.9453 12.2695C59.2461 10.8398 61.2734 10.125 64.0273 10.125C64.8125 10.125 65.6035 10.2129 66.4004 10.3887C67.209 10.5527 67.877 10.7988 68.4043 11.127C68.9434 11.4434 69.2129 11.8301 69.2129 12.2871C69.2129 12.4746 69.1074 12.7676 68.8965 13.166C68.6973 13.5645 68.4629 13.9219 68.1934 14.2383C67.9355 14.543 67.7188 14.6953 67.543 14.6953C67.4609 14.6953 67.2793 14.6133 66.998 14.4492C66.5527 14.2383 66.1309 14.0742 65.7324 13.957C65.334 13.8281 64.8477 13.7637 64.2734 13.7637C63.043 13.7637 62.1465 14.1562 61.584 14.9414C61.0215 15.7148 60.7402 16.9102 60.7402 18.5273C60.7402 20.1562 61.0039 21.3633 61.5312 22.1484C62.0703 22.9219 62.9258 23.3086 64.0977 23.3086C64.7422 23.3086 65.3047 23.2441 65.7852 23.1152C66.2656 22.9746 66.7227 22.7988 67.1562 22.5879C67.2383 22.5527 67.3379 22.5117 67.4551 22.4648C67.5723 22.418 67.6602 22.3945 67.7188 22.3945C67.9297 22.3945 68.1582 22.5469 68.4043 22.8516C68.6621 23.1445 68.8789 23.4844 69.0547 23.8711C69.2422 24.2578 69.3359 24.5566 69.3359 24.7676C69.3359 25.3066 68.9844 25.7402 68.2812 26.0684C67.5781 26.3965 66.793 26.6309 65.9258 26.7715C65.0586 26.9121 64.3672 26.9824 63.8516 26.9824Z" fill="black"/>
<path d="M73.7832 26.7715C72.5293 26.7715 71.9023 26.4434 71.9023 25.7871V4.16602C71.9023 3.82617 72.0547 3.57422 72.3594 3.41016C72.6641 3.23438 73.1387 3.14648 73.7832 3.14648H74.6445C75.8984 3.14648 76.5254 3.48633 76.5254 4.16602V16.5234L76.6309 16.5586L80.4277 10.916C80.5918 10.6699 80.8203 10.5117 81.1133 10.4414C81.4062 10.3594 81.8105 10.3184 82.3262 10.3184H83.4863C84.6582 10.3184 85.2441 10.4766 85.2441 10.793C85.2441 10.957 85.1445 11.1562 84.9453 11.3906L80.6211 17.5957L85.7012 25.6465C85.877 25.9395 85.9648 26.1562 85.9648 26.2969C85.9648 26.6133 85.3672 26.7715 84.1719 26.7715H82.8711C82.3672 26.7715 81.957 26.7305 81.6406 26.6484C81.3242 26.5664 81.1074 26.4082 80.9902 26.1738L76.6309 18.9844L76.5254 19.0371V25.7871C76.5254 26.4434 75.8984 26.7715 74.6445 26.7715H73.7832Z" fill="black"/>
<path d="M97.3379 26.8242C95.791 26.7539 93.9805 26.7188 91.9062 26.7188C90.4766 26.7188 88.9883 26.7539 87.4414 26.8242C87.3945 26.6367 87.3711 26.5078 87.3711 26.4375C87.3711 26.3789 87.3945 26.2324 87.4414 25.998C87.8281 25.9512 88.1387 25.9043 88.373 25.8574C88.6191 25.7988 88.9238 25.7109 89.2871 25.5938C89.6621 25.4766 89.9434 25.3125 90.1309 25.1016C90.3184 24.8789 90.418 24.6152 90.4297 24.3105C90.4766 23.1504 90.5 19.3359 90.5 12.8672H88.127C88.0566 12.6797 88.0215 12.4746 88.0215 12.252C88.0215 11.9941 88.0566 11.7773 88.127 11.6016H90.5V9.75586C90.5 8.4668 90.6641 7.24805 90.9922 6.09961C91.332 4.93945 91.8184 3.90234 92.4512 2.98828C93.0957 2.07422 93.9395 1.34766 94.9824 0.808594C96.0371 0.269531 97.2207 0 98.5332 0C99.752 0 100.771 0.310547 101.592 0.931641C102.424 1.54102 102.84 2.34961 102.84 3.35742C102.84 3.97852 102.635 4.51758 102.225 4.97461C101.814 5.43164 101.287 5.66016 100.643 5.66016C100.021 5.66016 99.5234 5.50781 99.1484 5.20312C98.7852 4.88672 98.6035 4.48828 98.6035 4.00781C98.6035 3.66797 98.7031 3.33984 98.9023 3.02344C99.1133 2.70703 99.4062 2.48438 99.7812 2.35547C99.5469 1.96875 99.2656 1.72266 98.9375 1.61719C98.6094 1.5 98.0996 1.44141 97.4082 1.44141C96.3301 1.44141 95.4277 1.82812 94.7012 2.60156C93.9863 3.375 93.6289 4.39453 93.6289 5.66016V11.6016H97.4434C97.5137 11.7773 97.5488 11.9941 97.5488 12.252C97.5488 12.4746 97.5137 12.6797 97.4434 12.8672H93.6289C93.6289 18.668 93.6758 22.4824 93.7695 24.3105C93.7812 24.6152 93.8984 24.8789 94.1211 25.1016C94.3438 25.3125 94.666 25.4766 95.0879 25.5938C95.5098 25.7109 95.873 25.7988 96.1777 25.8574C96.4824 25.9043 96.8691 25.9512 97.3379 25.998C97.3848 26.2324 97.4082 26.3906 97.4082 26.4727C97.4082 26.5664 97.3848 26.6836 97.3379 26.8242Z" fill="black"/>
<path d="M100.484 12.252C102.758 12.0176 104.738 11.5371 106.426 10.8105C106.719 10.9277 106.924 11.0801 107.041 11.2676C107.041 17.3496 107.088 21.6973 107.182 24.3105C107.193 24.6152 107.281 24.8789 107.445 25.1016C107.621 25.3125 107.867 25.4766 108.184 25.5938C108.5 25.7109 108.764 25.7988 108.975 25.8574C109.186 25.9043 109.461 25.9512 109.801 25.998C109.871 26.1387 109.906 26.2852 109.906 26.4375C109.906 26.5898 109.871 26.7188 109.801 26.8242C108.254 26.7539 106.754 26.7188 105.301 26.7188C103.871 26.7188 102.383 26.7539 100.836 26.8242C100.789 26.6367 100.766 26.5078 100.766 26.4375C100.766 26.3789 100.789 26.2324 100.836 25.998C101.223 25.9512 101.539 25.9043 101.785 25.8574C102.031 25.7988 102.336 25.7109 102.699 25.5938C103.062 25.4766 103.338 25.3125 103.525 25.1016C103.713 24.8789 103.812 24.6152 103.824 24.3105C103.871 23.1504 103.895 21.7441 103.895 20.0918C103.895 19.541 103.889 18.6035 103.877 17.2793C103.865 15.9551 103.859 14.7949 103.859 13.7988C103.191 13.3887 102.066 13.1484 100.484 13.0781C100.438 12.8906 100.414 12.7441 100.414 12.6387C100.414 12.5684 100.438 12.4395 100.484 12.252ZM103.244 4.9043C103.244 4.30664 103.455 3.79688 103.877 3.375C104.311 2.95312 104.82 2.74219 105.406 2.74219C106.004 2.74219 106.514 2.95312 106.936 3.375C107.357 3.79688 107.568 4.30664 107.568 4.9043C107.568 5.49023 107.357 6 106.936 6.43359C106.514 6.85547 106.004 7.06641 105.406 7.06641C104.82 7.06641 104.311 6.85547 103.877 6.43359C103.455 6 103.244 5.49023 103.244 4.9043Z" fill="black"/>
<path d="M121.648 25.998C121.719 26.1387 121.754 26.2852 121.754 26.4375C121.754 26.5547 121.719 26.6836 121.648 26.8242C120.102 26.7539 118.602 26.7188 117.148 26.7188C115.719 26.7188 114.23 26.7539 112.684 26.8242C112.637 26.6367 112.613 26.5078 112.613 26.4375C112.613 26.3789 112.637 26.2324 112.684 25.998C113.07 25.9512 113.387 25.9043 113.633 25.8574C113.879 25.7988 114.184 25.7109 114.547 25.5938C114.91 25.4766 115.186 25.3125 115.373 25.1016C115.561 24.8789 115.66 24.6152 115.672 24.3105C115.719 23.1504 115.742 21.7441 115.742 20.0918C115.742 19.541 115.736 18.6035 115.725 17.2793C115.713 15.9551 115.707 14.7949 115.707 13.7988C115.039 13.3887 113.914 13.1484 112.332 13.0781C112.285 12.8906 112.262 12.7441 112.262 12.6387C112.262 12.5684 112.285 12.4395 112.332 12.252C114.605 12.0176 116.586 11.5371 118.273 10.8105C118.566 10.9277 118.771 11.0801 118.889 11.2676V14.0449C120.025 13.0488 121.115 12.252 122.158 11.6543C123.201 11.0449 124.256 10.7402 125.322 10.7402C126.658 10.7402 127.602 11.1152 128.152 11.8652C128.715 12.6152 129.008 13.7871 129.031 15.3809L129.207 24.3105C129.219 24.6152 129.307 24.8789 129.471 25.1016C129.646 25.3125 129.893 25.4766 130.209 25.5938C130.537 25.7109 130.807 25.7988 131.018 25.8574C131.229 25.9043 131.504 25.9512 131.844 25.998C131.891 26.2324 131.914 26.3906 131.914 26.4727C131.914 26.5664 131.891 26.6836 131.844 26.8242C130.332 26.7539 128.938 26.7188 127.66 26.7188C126.418 26.7188 125.041 26.7539 123.529 26.8242C123.482 26.6367 123.459 26.4961 123.459 26.4023C123.459 26.3203 123.482 26.1855 123.529 25.998C123.834 25.9512 124.086 25.9043 124.285 25.8574C124.496 25.7988 124.73 25.7109 124.988 25.5938C125.258 25.4766 125.457 25.3125 125.586 25.1016C125.727 24.8789 125.797 24.6152 125.797 24.3105L125.832 15.9609C125.832 13.8398 125.193 12.7793 123.916 12.7793C122.721 12.7793 121.045 13.5762 118.889 15.1699C118.889 18.5801 118.936 21.627 119.029 24.3105C119.041 24.6152 119.129 24.8789 119.293 25.1016C119.469 25.3125 119.715 25.4766 120.031 25.5938C120.348 25.7109 120.611 25.7988 120.822 25.8574C121.033 25.9043 121.309 25.9512 121.648 25.998Z" fill="black"/>
</mask>
<g mask="url(#mask0)">
<rect x="11" y="-10" width="129" height="55" fill="#E6E6E6"/>
</g>
</svg>
