<svg width="132" height="28" viewBox="0 0 132 28" fill="none" xmlns="http://www.w3.org/2000/svg">
<path d="M11 21.5C11 24.5376 8.53757 27 5.5 27C2.46243 27 0 24.5376 0 21.5C0 18.4624 2.46243 16 5.5 16C8.53757 16 11 18.4624 11 21.5Z" fill="#E5E5E5"/>
<path d="M11 13.5C11 16.5376 8.53757 19 5.5 19C2.46243 19 0 16.5376 0 13.5C0 10.4624 2.46243 8 5.5 8C8.53757 8 11 10.4624 11 13.5Z" fill="#F08D7E"/>
<mask id="mask0" mask-type="alpha" maskUnits="userSpaceOnUse" x="14" y="0" width="118" height="28">
<path d="M20.1523 27.2637C19.3438 27.2637 18.541 27.1758 17.7441 27C16.9473 26.8242 16.2852 26.5723 15.7578 26.2441C15.2422 25.916 14.9844 25.541 14.9844 25.1191C14.9844 24.8613 15.0781 24.5391 15.2656 24.1523C15.4531 23.7656 15.6758 23.4316 15.9336 23.1504C16.2031 22.8574 16.4375 22.7109 16.6367 22.7109C16.7422 22.7109 16.9707 22.793 17.3223 22.957C17.7324 23.1445 18.125 23.2969 18.5 23.4141C18.875 23.5312 19.3027 23.5898 19.7832 23.5898C20.3809 23.5898 20.832 23.4785 21.1367 23.2559C21.4414 23.0332 21.5938 22.7051 21.5938 22.2715C21.5938 21.9434 21.5 21.6738 21.3125 21.4629C21.1367 21.2402 20.9082 21.0586 20.627 20.918C20.3457 20.7773 19.9473 20.6074 19.4316 20.4082L18.9219 20.2148C18.2539 19.957 17.668 19.6641 17.1641 19.3359C16.6602 19.0078 16.2324 18.5332 15.8809 17.9121C15.5293 17.2793 15.3535 16.4824 15.3535 15.5215C15.3535 14.4551 15.582 13.541 16.0391 12.7793C16.5078 12.0059 17.1699 11.4199 18.0254 11.0215C18.8809 10.6113 19.8887 10.4062 21.0488 10.4062C21.7168 10.4062 22.4141 10.4707 23.1406 10.5996C23.8672 10.7285 24.4766 10.9277 24.9688 11.1973C25.4727 11.4668 25.7246 11.8066 25.7246 12.2168C25.7246 12.4512 25.6484 12.7676 25.4961 13.166C25.3555 13.5645 25.1797 13.916 24.9688 14.2207C24.7578 14.5254 24.5586 14.6777 24.3711 14.6777C24.3125 14.6777 24.1484 14.625 23.8789 14.5195C23.5156 14.3672 23.1641 14.25 22.8242 14.168C22.4961 14.0742 22.1152 14.0273 21.6816 14.0273C20.5801 14.0273 20.0293 14.3906 20.0293 15.1172C20.0293 15.4453 20.1289 15.7266 20.3281 15.9609C20.5391 16.1953 20.7969 16.3887 21.1016 16.541C21.4062 16.6934 21.834 16.875 22.3848 17.0859C23.0176 17.3438 23.4102 17.5078 23.5625 17.5781C24.3828 17.9883 25.0391 18.5332 25.5312 19.2129C26.0352 19.8809 26.2871 20.7773 26.2871 21.9023C26.2871 22.9688 26.0469 23.9062 25.5664 24.7148C25.0859 25.5234 24.3828 26.1504 23.457 26.5957C22.5312 27.041 21.4297 27.2637 20.1523 27.2637Z" fill="black"/>
<path d="M33.8809 27.2637C32.3926 27.2637 31.2559 26.8477 30.4707 26.0156C29.6973 25.1719 29.3105 23.8945 29.3105 22.1836V14.3086H28.8184C28.4902 14.3086 28.25 14.1855 28.0977 13.9395C27.957 13.6934 27.8867 13.2949 27.8867 12.7441V12.2168C27.8867 11.666 27.957 11.2676 28.0977 11.0215C28.25 10.7754 28.4902 10.6523 28.8184 10.6523H29.3105L29.7148 7.68164C29.8086 7.02539 30.3711 6.69727 31.4023 6.69727H32.3867C32.9258 6.69727 33.3184 6.7793 33.5645 6.94336C33.8223 7.10742 33.9512 7.35352 33.9512 7.68164V10.6523H35.4805C35.8086 10.6523 36.043 10.7754 36.1836 11.0215C36.3359 11.2676 36.4121 11.666 36.4121 12.2168V12.7441C36.4121 13.2949 36.3359 13.6934 36.1836 13.9395C36.043 14.1855 35.8086 14.3086 35.4805 14.3086H33.9512V22.2363C33.9512 22.7168 34.0332 23.0625 34.1973 23.2734C34.373 23.4844 34.6602 23.5898 35.0586 23.5898C35.1758 23.5898 35.334 23.5723 35.5332 23.5371C35.7324 23.4902 35.8555 23.4668 35.9023 23.4668C36.0898 23.4668 36.2539 23.625 36.3945 23.9414C36.5469 24.2461 36.6641 24.5859 36.7461 24.9609C36.8398 25.3359 36.8867 25.5879 36.8867 25.7168C36.8867 26.748 35.8848 27.2637 33.8809 27.2637Z" fill="black"/>
<path d="M43.5664 27.2637C41.9727 27.2637 40.8008 26.8477 40.0508 26.0156C39.3125 25.1719 38.9434 24.0586 38.9434 22.6758C38.9434 21.6328 39.1602 20.6953 39.5938 19.8633C40.0273 19.0195 40.9062 18.3105 42.2305 17.7363C43.5547 17.1621 45.4473 16.875 47.9082 16.875V15.8379C47.9082 15.2285 47.7148 14.7773 47.3281 14.4844C46.9414 14.1914 46.3262 14.0449 45.4824 14.0449C44.7793 14.0449 44.1758 14.1211 43.6719 14.2734C43.168 14.4141 42.623 14.6074 42.0371 14.8535C41.7324 14.9941 41.5449 15.0645 41.4746 15.0645C41.2637 15.0645 41.0293 14.9062 40.7715 14.5898C40.5254 14.2734 40.3086 13.9102 40.1211 13.5C39.9336 13.0898 39.8398 12.7793 39.8398 12.5684C39.8398 12.2051 40.0977 11.8594 40.6133 11.5312C41.1406 11.1914 41.8613 10.9219 42.7754 10.7227C43.6895 10.5117 44.7031 10.4062 45.8164 10.4062C48.1602 10.4062 49.8652 10.875 50.9316 11.8125C51.998 12.7383 52.5312 14.0098 52.5312 15.627V21.4805C52.5312 22.4531 52.5547 23.209 52.6016 23.748C52.6602 24.2871 52.7363 24.8203 52.8301 25.3477C52.8887 25.6641 52.918 25.8867 52.918 26.0156C52.918 26.25 52.6953 26.4434 52.25 26.5957C51.8164 26.748 51.3184 26.8594 50.7559 26.9297C50.1934 27 49.7422 27.0352 49.4023 27.0352C49.0391 27.0352 48.7754 26.8828 48.6113 26.5781C48.459 26.2617 48.3359 25.834 48.2422 25.2949C48.2305 25.2246 48.2188 25.1543 48.207 25.084C48.1953 25.0137 48.1777 24.9434 48.1543 24.873C48.0371 25.0957 47.7852 25.3945 47.3984 25.7695C47.0234 26.1445 46.5078 26.4902 45.8516 26.8066C45.1953 27.1113 44.4336 27.2637 43.5664 27.2637ZM45.0957 23.5898C45.6816 23.5898 46.2324 23.4082 46.748 23.0449C47.2637 22.6699 47.6504 22.1953 47.9082 21.6211V19.8984C44.9902 19.8984 43.5312 20.666 43.5312 22.2012C43.5312 22.6113 43.666 22.9453 43.9355 23.2031C44.2168 23.4609 44.6035 23.5898 45.0957 23.5898Z" fill="black"/>
<path d="M63.8516 27.2637C61.1914 27.2637 59.2168 26.5781 57.9277 25.207C56.6387 23.8242 55.9941 21.7324 55.9941 18.9316C55.9941 16.1074 56.6445 13.9805 57.9453 12.5508C59.2461 11.1211 61.2734 10.4062 64.0273 10.4062C64.8125 10.4062 65.6035 10.4941 66.4004 10.6699C67.209 10.834 67.877 11.0801 68.4043 11.4082C68.9434 11.7246 69.2129 12.1113 69.2129 12.5684C69.2129 12.7559 69.1074 13.0488 68.8965 13.4473C68.6973 13.8457 68.4629 14.2031 68.1934 14.5195C67.9355 14.8242 67.7188 14.9766 67.543 14.9766C67.4609 14.9766 67.2793 14.8945 66.998 14.7305C66.5527 14.5195 66.1309 14.3555 65.7324 14.2383C65.334 14.1094 64.8477 14.0449 64.2734 14.0449C63.043 14.0449 62.1465 14.4375 61.584 15.2227C61.0215 15.9961 60.7402 17.1914 60.7402 18.8086C60.7402 20.4375 61.0039 21.6445 61.5312 22.4297C62.0703 23.2031 62.9258 23.5898 64.0977 23.5898C64.7422 23.5898 65.3047 23.5254 65.7852 23.3965C66.2656 23.2559 66.7227 23.0801 67.1562 22.8691C67.2383 22.834 67.3379 22.793 67.4551 22.7461C67.5723 22.6992 67.6602 22.6758 67.7188 22.6758C67.9297 22.6758 68.1582 22.8281 68.4043 23.1328C68.6621 23.4258 68.8789 23.7656 69.0547 24.1523C69.2422 24.5391 69.3359 24.8379 69.3359 25.0488C69.3359 25.5879 68.9844 26.0215 68.2812 26.3496C67.5781 26.6777 66.793 26.9121 65.9258 27.0527C65.0586 27.1934 64.3672 27.2637 63.8516 27.2637Z" fill="black"/>
<path d="M73.7832 27.0527C72.5293 27.0527 71.9023 26.7246 71.9023 26.0684V4.44727C71.9023 4.10742 72.0547 3.85547 72.3594 3.69141C72.6641 3.51562 73.1387 3.42773 73.7832 3.42773H74.6445C75.8984 3.42773 76.5254 3.76758 76.5254 4.44727V16.8047L76.6309 16.8398L80.4277 11.1973C80.5918 10.9512 80.8203 10.793 81.1133 10.7227C81.4062 10.6406 81.8105 10.5996 82.3262 10.5996H83.4863C84.6582 10.5996 85.2441 10.7578 85.2441 11.0742C85.2441 11.2383 85.1445 11.4375 84.9453 11.6719L80.6211 17.877L85.7012 25.9277C85.877 26.2207 85.9648 26.4375 85.9648 26.5781C85.9648 26.8945 85.3672 27.0527 84.1719 27.0527H82.8711C82.3672 27.0527 81.957 27.0117 81.6406 26.9297C81.3242 26.8477 81.1074 26.6895 80.9902 26.4551L76.6309 19.2656L76.5254 19.3184V26.0684C76.5254 26.7246 75.8984 27.0527 74.6445 27.0527H73.7832Z" fill="black"/>
<path d="M97.3379 27.1055C95.791 27.0352 93.9805 27 91.9062 27C90.4766 27 88.9883 27.0352 87.4414 27.1055C87.3945 26.918 87.3711 26.7891 87.3711 26.7188C87.3711 26.6602 87.3945 26.5137 87.4414 26.2793C87.8281 26.2324 88.1387 26.1855 88.373 26.1387C88.6191 26.0801 88.9238 25.9922 89.2871 25.875C89.6621 25.7578 89.9434 25.5938 90.1309 25.3828C90.3184 25.1602 90.418 24.8965 90.4297 24.5918C90.4766 23.4316 90.5 19.6172 90.5 13.1484H88.127C88.0566 12.9609 88.0215 12.7559 88.0215 12.5332C88.0215 12.2754 88.0566 12.0586 88.127 11.8828H90.5V10.0371C90.5 8.74805 90.6641 7.5293 90.9922 6.38086C91.332 5.2207 91.8184 4.18359 92.4512 3.26953C93.0957 2.35547 93.9395 1.62891 94.9824 1.08984C96.0371 0.550781 97.2207 0.28125 98.5332 0.28125C99.752 0.28125 100.771 0.591797 101.592 1.21289C102.424 1.82227 102.84 2.63086 102.84 3.63867C102.84 4.25977 102.635 4.79883 102.225 5.25586C101.814 5.71289 101.287 5.94141 100.643 5.94141C100.021 5.94141 99.5234 5.78906 99.1484 5.48438C98.7852 5.16797 98.6035 4.76953 98.6035 4.28906C98.6035 3.94922 98.7031 3.62109 98.9023 3.30469C99.1133 2.98828 99.4062 2.76562 99.7812 2.63672C99.5469 2.25 99.2656 2.00391 98.9375 1.89844C98.6094 1.78125 98.0996 1.72266 97.4082 1.72266C96.3301 1.72266 95.4277 2.10938 94.7012 2.88281C93.9863 3.65625 93.6289 4.67578 93.6289 5.94141V11.8828H97.4434C97.5137 12.0586 97.5488 12.2754 97.5488 12.5332C97.5488 12.7559 97.5137 12.9609 97.4434 13.1484H93.6289C93.6289 18.9492 93.6758 22.7637 93.7695 24.5918C93.7812 24.8965 93.8984 25.1602 94.1211 25.3828C94.3438 25.5938 94.666 25.7578 95.0879 25.875C95.5098 25.9922 95.873 26.0801 96.1777 26.1387C96.4824 26.1855 96.8691 26.2324 97.3379 26.2793C97.3848 26.5137 97.4082 26.6719 97.4082 26.7539C97.4082 26.8477 97.3848 26.9648 97.3379 27.1055Z" fill="black"/>
<path d="M100.484 12.5332C102.758 12.2988 104.738 11.8184 106.426 11.0918C106.719 11.209 106.924 11.3613 107.041 11.5488C107.041 17.6309 107.088 21.9785 107.182 24.5918C107.193 24.8965 107.281 25.1602 107.445 25.3828C107.621 25.5938 107.867 25.7578 108.184 25.875C108.5 25.9922 108.764 26.0801 108.975 26.1387C109.186 26.1855 109.461 26.2324 109.801 26.2793C109.871 26.4199 109.906 26.5664 109.906 26.7188C109.906 26.8711 109.871 27 109.801 27.1055C108.254 27.0352 106.754 27 105.301 27C103.871 27 102.383 27.0352 100.836 27.1055C100.789 26.918 100.766 26.7891 100.766 26.7188C100.766 26.6602 100.789 26.5137 100.836 26.2793C101.223 26.2324 101.539 26.1855 101.785 26.1387C102.031 26.0801 102.336 25.9922 102.699 25.875C103.062 25.7578 103.338 25.5938 103.525 25.3828C103.713 25.1602 103.812 24.8965 103.824 24.5918C103.871 23.4316 103.895 22.0254 103.895 20.373C103.895 19.8223 103.889 18.8848 103.877 17.5605C103.865 16.2363 103.859 15.0762 103.859 14.0801C103.191 13.6699 102.066 13.4297 100.484 13.3594C100.438 13.1719 100.414 13.0254 100.414 12.9199C100.414 12.8496 100.438 12.7207 100.484 12.5332ZM103.244 5.18555C103.244 4.58789 103.455 4.07812 103.877 3.65625C104.311 3.23438 104.82 3.02344 105.406 3.02344C106.004 3.02344 106.514 3.23438 106.936 3.65625C107.357 4.07812 107.568 4.58789 107.568 5.18555C107.568 5.77148 107.357 6.28125 106.936 6.71484C106.514 7.13672 106.004 7.34766 105.406 7.34766C104.82 7.34766 104.311 7.13672 103.877 6.71484C103.455 6.28125 103.244 5.77148 103.244 5.18555Z" fill="black"/>
<path d="M121.648 26.2793C121.719 26.4199 121.754 26.5664 121.754 26.7188C121.754 26.8359 121.719 26.9648 121.648 27.1055C120.102 27.0352 118.602 27 117.148 27C115.719 27 114.23 27.0352 112.684 27.1055C112.637 26.918 112.613 26.7891 112.613 26.7188C112.613 26.6602 112.637 26.5137 112.684 26.2793C113.07 26.2324 113.387 26.1855 113.633 26.1387C113.879 26.0801 114.184 25.9922 114.547 25.875C114.91 25.7578 115.186 25.5938 115.373 25.3828C115.561 25.1602 115.66 24.8965 115.672 24.5918C115.719 23.4316 115.742 22.0254 115.742 20.373C115.742 19.8223 115.736 18.8848 115.725 17.5605C115.713 16.2363 115.707 15.0762 115.707 14.0801C115.039 13.6699 113.914 13.4297 112.332 13.3594C112.285 13.1719 112.262 13.0254 112.262 12.9199C112.262 12.8496 112.285 12.7207 112.332 12.5332C114.605 12.2988 116.586 11.8184 118.273 11.0918C118.566 11.209 118.771 11.3613 118.889 11.5488V14.3262C120.025 13.3301 121.115 12.5332 122.158 11.9355C123.201 11.3262 124.256 11.0215 125.322 11.0215C126.658 11.0215 127.602 11.3965 128.152 12.1465C128.715 12.8965 129.008 14.0684 129.031 15.6621L129.207 24.5918C129.219 24.8965 129.307 25.1602 129.471 25.3828C129.646 25.5938 129.893 25.7578 130.209 25.875C130.537 25.9922 130.807 26.0801 131.018 26.1387C131.229 26.1855 131.504 26.2324 131.844 26.2793C131.891 26.5137 131.914 26.6719 131.914 26.7539C131.914 26.8477 131.891 26.9648 131.844 27.1055C130.332 27.0352 128.938 27 127.66 27C126.418 27 125.041 27.0352 123.529 27.1055C123.482 26.918 123.459 26.7773 123.459 26.6836C123.459 26.6016 123.482 26.4668 123.529 26.2793C123.834 26.2324 124.086 26.1855 124.285 26.1387C124.496 26.0801 124.73 25.9922 124.988 25.875C125.258 25.7578 125.457 25.5938 125.586 25.3828C125.727 25.1602 125.797 24.8965 125.797 24.5918L125.832 16.2422C125.832 14.1211 125.193 13.0605 123.916 13.0605C122.721 13.0605 121.045 13.8574 118.889 15.4512C118.889 18.8613 118.936 21.9082 119.029 24.5918C119.041 24.8965 119.129 25.1602 119.293 25.3828C119.469 25.5938 119.715 25.7578 120.031 25.875C120.348 25.9922 120.611 26.0801 120.822 26.1387C121.033 26.1855 121.309 26.2324 121.648 26.2793Z" fill="black"/>
</mask>
<g mask="url(#mask0)">
<path d="M11 -10H87V45H11V-10Z" fill="#E6E6E6"/>
<path d="M88 -41H148V35H88V-41Z" fill="#F08D7E"/>
</g>
</svg>
