<svg width="116" height="25" viewBox="0 0 116 25" fill="none" xmlns="http://www.w3.org/2000/svg">
<path d="M9.67296 19.1953C9.67296 21.8665 7.5076 24.0318 4.83648 24.0318C2.16537 24.0318 0 21.8665 0 19.1953C0 16.5242 2.16537 14.3589 4.83648 14.3589C7.5076 14.3589 9.67296 16.5242 9.67296 19.1953Z" fill="#F08D7E"/>
<path d="M9.67296 12.1605C9.67296 14.8316 7.5076 16.9969 4.83648 16.9969C2.16537 16.9969 0 14.8316 0 12.1605C0 9.48934 2.16537 7.32397 4.83648 7.32397C7.5076 7.32397 9.67296 9.48934 9.67296 12.1605Z" fill="#F08D7E"/>
<mask id="mask0" mask-type="alpha" maskUnits="userSpaceOnUse" x="13" y="0" width="103" height="25">
<path d="M17.7212 24.2637C17.0101 24.2637 16.3042 24.1864 15.6035 24.0318C14.9028 23.8772 14.3205 23.6557 13.8568 23.3671C13.4034 23.0786 13.1767 22.7488 13.1767 22.3779C13.1767 22.1512 13.2591 21.8678 13.424 21.5277C13.5889 21.1876 13.7847 20.8939 14.0114 20.6466C14.2484 20.389 14.4545 20.2602 14.6297 20.2602C14.7224 20.2602 14.9234 20.3323 15.2325 20.4766C15.5932 20.6415 15.9384 20.7754 16.2682 20.8785C16.5979 20.9815 16.9741 21.0331 17.3966 21.0331C17.9221 21.0331 18.3189 20.9352 18.5868 20.7394C18.8547 20.5436 18.9887 20.255 18.9887 19.8737C18.9887 19.5852 18.9062 19.3482 18.7414 19.1627C18.5868 18.9669 18.3858 18.8072 18.1385 18.6835C17.8912 18.5599 17.5408 18.4104 17.0874 18.2353L16.6391 18.0652C16.0518 17.8385 15.5365 17.5809 15.0934 17.2923C14.6503 17.0038 14.2741 16.5865 13.965 16.0403C13.6558 15.4838 13.5013 14.7831 13.5013 13.9381C13.5013 13.0003 13.7022 12.1965 14.1041 11.5267C14.5163 10.8466 15.0985 10.3313 15.8508 9.98094C16.6031 9.62027 17.4893 9.43993 18.5095 9.43993C19.0969 9.43993 19.71 9.49661 20.3489 9.60996C20.9879 9.72332 21.5237 9.8985 21.9565 10.1355C22.3996 10.3725 22.6212 10.6714 22.6212 11.0321C22.6212 11.2382 22.5542 11.5164 22.4203 11.8668C22.2966 12.2171 22.142 12.5263 21.9565 12.7942C21.771 13.0621 21.5959 13.1961 21.431 13.1961C21.3794 13.1961 21.2352 13.1497 20.9982 13.057C20.6787 12.923 20.3696 12.82 20.0707 12.7478C19.7822 12.6654 19.4473 12.6242 19.066 12.6242C18.0973 12.6242 17.613 12.9436 17.613 13.5825C17.613 13.8711 17.7006 14.1184 17.8757 14.3245C18.0612 14.5306 18.2879 14.7006 18.5559 14.8346C18.8238 14.9686 19.1999 15.1283 19.6843 15.3138C20.2407 15.5405 20.586 15.6848 20.7199 15.7466C21.4413 16.1073 22.0184 16.5865 22.4512 17.1841C22.8943 17.7715 23.1158 18.5599 23.1158 19.5491C23.1158 20.4869 22.9046 21.3113 22.4821 22.0223C22.0596 22.7334 21.4413 23.2847 20.6272 23.6763C19.8131 24.0679 18.8444 24.2637 17.7212 24.2637Z" fill="black"/>
<path d="M29.7935 24.2637C28.4848 24.2637 27.4852 23.8979 26.7947 23.1662C26.1146 22.4242 25.7745 21.301 25.7745 19.7965V12.8715H25.3417C25.0532 12.8715 24.8419 12.7633 24.708 12.5469C24.5843 12.3305 24.5225 11.9801 24.5225 11.4958V11.0321C24.5225 10.5477 24.5843 10.1973 24.708 9.98094C24.8419 9.76454 25.0532 9.65634 25.3417 9.65634H25.7745L26.1301 7.04402C26.2125 6.46694 26.7071 6.1784 27.614 6.1784H28.4796C28.9536 6.1784 29.2988 6.25053 29.5153 6.3948C29.742 6.53907 29.8553 6.75548 29.8553 7.04402V9.65634H31.2001C31.4887 9.65634 31.6948 9.76454 31.8184 9.98094C31.9524 10.1973 32.0194 10.5477 32.0194 11.0321V11.4958C32.0194 11.9801 31.9524 12.3305 31.8184 12.5469C31.6948 12.7633 31.4887 12.8715 31.2001 12.8715H29.8553V19.8428C29.8553 20.2653 29.9275 20.5693 30.0717 20.7548C30.2263 20.9403 30.4788 21.0331 30.8291 21.0331C30.9322 21.0331 31.0713 21.0176 31.2465 20.9867C31.4217 20.9455 31.5299 20.9249 31.5711 20.9249C31.736 20.9249 31.8802 21.064 32.0039 21.3422C32.1379 21.6101 32.2409 21.909 32.3131 22.2387C32.3955 22.5685 32.4367 22.7901 32.4367 22.9034C32.4367 23.8103 31.5556 24.2637 29.7935 24.2637Z" fill="black"/>
<path d="M38.3106 24.2637C36.9091 24.2637 35.8786 23.8979 35.2191 23.1662C34.5699 22.4242 34.2452 21.4453 34.2452 20.2293C34.2452 19.3121 34.4359 18.4877 34.8172 17.7561C35.1985 17.0141 35.9713 16.3907 37.1358 15.8857C38.3003 15.3808 39.9645 15.1283 42.1286 15.1283V14.2163C42.1286 13.6804 41.9585 13.2837 41.6185 13.0261C41.2784 12.7684 40.7374 12.6396 39.9954 12.6396C39.3771 12.6396 38.8464 12.7066 38.4033 12.8406C37.9602 12.9642 37.481 13.1343 36.9658 13.3507C36.6978 13.4743 36.533 13.5362 36.4711 13.5362C36.2856 13.5362 36.0795 13.3971 35.8528 13.1188C35.6364 12.8406 35.4458 12.5211 35.2809 12.1605C35.116 11.7998 35.0336 11.5267 35.0336 11.3412C35.0336 11.0218 35.2603 10.7178 35.7137 10.4292C36.1774 10.1304 36.8112 9.89335 37.615 9.71817C38.4188 9.53268 39.3102 9.43993 40.2891 9.43993C42.3501 9.43993 43.8495 9.85213 44.7873 10.6765C45.725 11.4906 46.1939 12.6087 46.1939 14.0308V19.1782C46.1939 20.0335 46.2145 20.6981 46.2557 21.1722C46.3073 21.6462 46.3742 22.1151 46.4567 22.5788C46.5082 22.857 46.534 23.0528 46.534 23.1662C46.534 23.3723 46.3382 23.5423 45.9466 23.6763C45.5653 23.8103 45.1273 23.9082 44.6327 23.97C44.1381 24.0318 43.7413 24.0627 43.4425 24.0627C43.123 24.0627 42.8911 23.9288 42.7469 23.6608C42.6129 23.3826 42.5047 23.0065 42.4223 22.5324C42.412 22.4706 42.4017 22.4088 42.3914 22.347C42.381 22.2851 42.3656 22.2233 42.345 22.1615C42.2419 22.3573 42.0204 22.62 41.6803 22.9498C41.3505 23.2796 40.8971 23.5836 40.32 23.8618C39.743 24.1297 39.0731 24.2637 38.3106 24.2637ZM39.6554 21.0331C40.1706 21.0331 40.655 20.8733 41.1084 20.5539C41.5618 20.2241 41.9019 19.8068 42.1286 19.3018V17.787C39.5626 17.787 38.2797 18.462 38.2797 19.8119C38.2797 20.1726 38.3982 20.4663 38.6352 20.693C38.8825 20.9197 39.2226 21.0331 39.6554 21.0331Z" fill="black"/>
<path d="M56.1485 24.2637C53.8093 24.2637 52.0729 23.6608 50.9394 22.4552C49.8058 21.2392 49.239 19.3997 49.239 16.9368C49.239 14.4533 49.811 12.583 50.9548 11.3257C52.0987 10.0685 53.8814 9.43993 56.3031 9.43993C56.9935 9.43993 57.6891 9.51722 58.3899 9.67179C59.1009 9.81606 59.6883 10.0325 60.152 10.321C60.6261 10.5992 60.8631 10.9393 60.8631 11.3412C60.8631 11.5061 60.7703 11.7637 60.5848 12.1141C60.4097 12.4645 60.2036 12.7788 59.9665 13.057C59.7398 13.3249 59.5492 13.4589 59.3946 13.4589C59.3225 13.4589 59.1627 13.3867 58.9154 13.2425C58.5238 13.057 58.1529 12.9127 57.8025 12.8097C57.4521 12.6963 57.0245 12.6396 56.5195 12.6396C55.4375 12.6396 54.6492 12.9849 54.1545 13.6753C53.6599 14.3554 53.4126 15.4065 53.4126 16.8286C53.4126 18.261 53.6444 19.3224 54.1081 20.0129C54.5822 20.693 55.3344 21.0331 56.3649 21.0331C56.9317 21.0331 57.4264 20.9764 57.8489 20.863C58.2714 20.7394 58.6733 20.5848 59.0545 20.3993C59.1267 20.3684 59.2143 20.3323 59.3173 20.2911C59.4204 20.2499 59.4977 20.2293 59.5492 20.2293C59.7347 20.2293 59.9356 20.3632 60.152 20.6312C60.3787 20.8888 60.5694 21.1876 60.724 21.5277C60.8888 21.8678 60.9713 22.1305 60.9713 22.316C60.9713 22.7901 60.6621 23.1714 60.0438 23.4599C59.4255 23.7484 58.7351 23.9545 57.9725 24.0782C57.21 24.2019 56.602 24.2637 56.1485 24.2637Z" fill="black"/>
<path d="M64.882 24.0782C63.7794 24.0782 63.2281 23.7897 63.2281 23.2126V4.19984C63.2281 3.90099 63.362 3.67943 63.63 3.53516C63.8979 3.38059 64.3153 3.3033 64.882 3.3033H65.6394C66.7421 3.3033 67.2934 3.60215 67.2934 4.19984V15.0665L67.3861 15.0974L70.725 10.1355C70.8692 9.91911 71.0702 9.78 71.3278 9.71817C71.5854 9.64603 71.941 9.60996 72.3944 9.60996H73.4146C74.4451 9.60996 74.9603 9.74908 74.9603 10.0273C74.9603 10.1716 74.8727 10.3468 74.6975 10.5529L70.895 16.0094L75.3622 23.0889C75.5168 23.3465 75.5941 23.5372 75.5941 23.6608C75.5941 23.9391 75.0685 24.0782 74.0174 24.0782H72.8736C72.4304 24.0782 72.0698 24.0421 71.7915 23.97C71.5133 23.8979 71.3227 23.7587 71.2196 23.5526L67.3861 17.2305L67.2934 17.2769V23.2126C67.2934 23.7897 66.7421 24.0782 65.6394 24.0782H64.882Z" fill="black"/>
<path d="M85.5951 24.1246C84.2348 24.0627 82.6427 24.0318 80.8187 24.0318C79.5615 24.0318 78.2528 24.0627 76.8925 24.1246C76.8513 23.9597 76.8307 23.8463 76.8307 23.7845C76.8307 23.733 76.8513 23.6042 76.8925 23.3981C77.2326 23.3568 77.5057 23.3156 77.7118 23.2744C77.9282 23.2229 78.1961 23.1456 78.5155 23.0425C78.8453 22.9395 79.0926 22.7952 79.2575 22.6097C79.4224 22.4139 79.51 22.1821 79.5203 21.9141C79.5615 20.8939 79.5821 17.5397 79.5821 11.8513H77.4954C77.4335 11.6864 77.4026 11.5061 77.4026 11.3103C77.4026 11.0836 77.4335 10.8929 77.4954 10.7384H79.5821V9.11532C79.5821 7.98177 79.7264 6.91005 80.0149 5.90016C80.3138 4.87997 80.7414 3.96797 81.2979 3.16418C81.8647 2.36039 82.6066 1.72148 83.5238 1.24745C84.4512 0.773423 85.492 0.536407 86.6462 0.536407C87.7179 0.536407 88.6145 0.80949 89.3358 1.35566C90.0675 1.89152 90.4333 2.60256 90.4333 3.48879C90.4333 4.03496 90.2529 4.50899 89.8923 4.91088C89.5316 5.31278 89.0679 5.51372 88.5011 5.51372C87.9549 5.51372 87.517 5.37976 87.1872 5.11183C86.8678 4.83359 86.708 4.48322 86.708 4.06072C86.708 3.76187 86.7956 3.47333 86.9708 3.1951C87.1563 2.91686 87.4139 2.72107 87.7437 2.60771C87.5376 2.26765 87.2903 2.05124 87.0017 1.9585C86.7132 1.85545 86.2649 1.80392 85.6569 1.80392C84.7089 1.80392 83.9154 2.14399 83.2765 2.82412C82.6479 3.50425 82.3336 4.40078 82.3336 5.51372V10.7384H85.6878C85.7497 10.8929 85.7806 11.0836 85.7806 11.3103C85.7806 11.5061 85.7497 11.6864 85.6878 11.8513H82.3336C82.3336 16.9523 82.3748 20.3066 82.4572 21.9141C82.4675 22.1821 82.5706 22.4139 82.7664 22.6097C82.9622 22.7952 83.2455 22.9395 83.6165 23.0425C83.9875 23.1456 84.307 23.2229 84.5749 23.2744C84.8428 23.3156 85.1829 23.3568 85.5951 23.3981C85.6363 23.6042 85.6569 23.7433 85.6569 23.8154C85.6569 23.8979 85.6363 24.0009 85.5951 24.1246Z" fill="black"/>
<path d="M88.362 11.3103C90.3611 11.1042 92.1027 10.6817 93.5866 10.0428C93.8442 10.1458 94.0246 10.2798 94.1276 10.4447C94.1276 15.793 94.1688 19.6161 94.2513 21.9141C94.2616 22.1821 94.3389 22.4139 94.4832 22.6097C94.6377 22.7952 94.8541 22.9395 95.1324 23.0425C95.4106 23.1456 95.6425 23.2229 95.828 23.2744C96.0134 23.3156 96.2556 23.3568 96.5545 23.3981C96.6163 23.5217 96.6472 23.6505 96.6472 23.7845C96.6472 23.9185 96.6163 24.0318 96.5545 24.1246C95.1942 24.0627 93.8752 24.0318 92.5973 24.0318C91.3401 24.0318 90.0314 24.0627 88.6711 24.1246C88.6299 23.9597 88.6093 23.8463 88.6093 23.7845C88.6093 23.733 88.6299 23.6042 88.6711 23.3981C89.0112 23.3568 89.2894 23.3156 89.5058 23.2744C89.7222 23.2229 89.9902 23.1456 90.3096 23.0425C90.6291 22.9395 90.8712 22.7952 91.0361 22.6097C91.201 22.4139 91.2886 22.1821 91.2989 21.9141C91.3401 20.8939 91.3607 19.6573 91.3607 18.2043C91.3607 17.72 91.3556 16.8956 91.3453 15.7311C91.335 14.5667 91.3298 13.5465 91.3298 12.6706C90.7424 12.3099 89.7532 12.0986 88.362 12.0368C88.3208 11.8719 88.3001 11.7431 88.3001 11.6504C88.3001 11.5885 88.3208 11.4752 88.362 11.3103ZM90.7888 4.84905C90.7888 4.3235 90.9743 3.87523 91.3453 3.50425C91.7266 3.13327 92.1748 2.94778 92.6901 2.94778C93.2156 2.94778 93.6639 3.13327 94.0349 3.50425C94.4059 3.87523 94.5914 4.3235 94.5914 4.84905C94.5914 5.3643 94.4059 5.81257 94.0349 6.19386C93.6639 6.56484 93.2156 6.75033 92.6901 6.75033C92.1748 6.75033 91.7266 6.56484 91.3453 6.19386C90.9743 5.81257 90.7888 5.3643 90.7888 4.84905Z" fill="black"/>
<path d="M106.973 23.3981C107.035 23.5217 107.066 23.6505 107.066 23.7845C107.066 23.8875 107.035 24.0009 106.973 24.1246C105.613 24.0627 104.294 24.0318 103.016 24.0318C101.758 24.0318 100.45 24.0627 99.0895 24.1246C99.0483 23.9597 99.0277 23.8463 99.0277 23.7845C99.0277 23.733 99.0483 23.6042 99.0895 23.3981C99.4296 23.3568 99.7078 23.3156 99.9242 23.2744C100.141 23.2229 100.409 23.1456 100.728 23.0425C101.047 22.9395 101.29 22.7952 101.454 22.6097C101.619 22.4139 101.707 22.1821 101.717 21.9141C101.758 20.8939 101.779 19.6573 101.779 18.2043C101.779 17.72 101.774 16.8956 101.764 15.7311C101.753 14.5667 101.748 13.5465 101.748 12.6706C101.161 12.3099 100.172 12.0986 98.7803 12.0368C98.7391 11.8719 98.7185 11.7431 98.7185 11.6504C98.7185 11.5885 98.7391 11.4752 98.7803 11.3103C100.78 11.1042 102.521 10.6817 104.005 10.0428C104.263 10.1458 104.443 10.2798 104.546 10.4447V12.887C105.546 12.011 106.504 11.3103 107.421 10.7847C108.338 10.2489 109.266 9.98094 110.203 9.98094C111.378 9.98094 112.208 10.3107 112.692 10.9702C113.187 11.6297 113.444 12.6602 113.465 14.0617L113.62 21.9141C113.63 22.1821 113.707 22.4139 113.851 22.6097C114.006 22.7952 114.222 22.9395 114.501 23.0425C114.789 23.1456 115.026 23.2229 115.212 23.2744C115.397 23.3156 115.639 23.3568 115.938 23.3981C115.979 23.6042 116 23.7433 116 23.8154C116 23.8979 115.979 24.0009 115.938 24.1246C114.609 24.0627 113.383 24.0318 112.259 24.0318C111.167 24.0318 109.956 24.0627 108.627 24.1246C108.586 23.9597 108.565 23.836 108.565 23.7536C108.565 23.6814 108.586 23.5629 108.627 23.3981C108.895 23.3568 109.116 23.3156 109.291 23.2744C109.477 23.2229 109.683 23.1456 109.91 23.0425C110.147 22.9395 110.322 22.7952 110.435 22.6097C110.559 22.4139 110.621 22.1821 110.621 21.9141L110.652 14.5718C110.652 12.7066 110.09 11.774 108.967 11.774C107.916 11.774 106.442 12.4748 104.546 13.8762C104.546 16.875 104.587 19.5543 104.67 21.9141C104.68 22.1821 104.757 22.4139 104.902 22.6097C105.056 22.7952 105.272 22.9395 105.551 23.0425C105.829 23.1456 106.061 23.2229 106.246 23.2744C106.432 23.3156 106.674 23.3568 106.973 23.3981Z" fill="black"/>
</mask>
<g mask="url(#mask0)">
<path d="M9.67294 -8.50452H76.5043V39.8603H9.67294V-8.50452Z" fill="#E6E6E6"/>
<path d="M-20.2253 -35.7647H130.145V31.0667H-20.2253V-35.7647Z" fill="#F08D7E"/>
</g>
</svg>
