<svg width="200" height="41" viewBox="0 0 200 41" fill="none" xmlns="http://www.w3.org/2000/svg">
<circle cx="8.33876" cy="32.2439" r="8.33876" fill="#E5E5E5"/>
<circle cx="8.33876" cy="20.1148" r="8.33876" fill="#E5E5E5"/>
<mask id="mask0" mask-type="alpha" maskUnits="userSpaceOnUse" x="22" y="0" width="178" height="41">
<path d="M30.5537 40.9824C29.3278 40.9824 28.1108 40.8492 26.9026 40.5827C25.6944 40.3162 24.6906 39.9342 23.891 39.4367C23.1093 38.9392 22.7184 38.3706 22.7184 37.731C22.7184 37.3401 22.8605 36.8515 23.1448 36.2652C23.4291 35.6789 23.7667 35.1725 24.1575 34.7461C24.5662 34.3019 24.9215 34.0799 25.2236 34.0799C25.3835 34.0799 25.7299 34.2042 26.263 34.453C26.8848 34.7372 27.48 34.9682 28.0486 35.1459C28.6171 35.3236 29.2656 35.4124 29.9941 35.4124C30.9002 35.4124 31.5842 35.2436 32.0462 34.906C32.5081 34.5684 32.7391 34.071 32.7391 33.4136C32.7391 32.9161 32.597 32.5074 32.3127 32.1876C32.0462 31.8501 31.6997 31.5747 31.2733 31.3615C30.8469 31.1483 30.2428 30.8906 29.4611 30.5886L28.6882 30.2954C27.6755 29.9045 26.7871 29.4604 26.0231 28.9629C25.2591 28.4654 24.6106 27.7458 24.0776 26.8042C23.5446 25.8447 23.2781 24.6366 23.2781 23.1796C23.2781 21.5628 23.6245 20.177 24.3174 19.0221C25.0281 17.8495 26.032 16.9611 27.329 16.357C28.626 15.7352 30.154 15.4242 31.9129 15.4242C32.9257 15.4242 33.9828 15.522 35.0844 15.7174C36.186 15.9128 37.1099 16.2149 37.8561 16.6235C38.6201 17.0322 39.0021 17.5474 39.0021 18.1693C39.0021 18.5246 38.8866 19.0043 38.6556 19.6084C38.4424 20.2125 38.1759 20.7455 37.8561 21.2075C37.5363 21.6694 37.2342 21.9004 36.95 21.9004C36.8611 21.9004 36.6124 21.8204 36.2037 21.6605C35.6529 21.4296 35.1199 21.2519 34.6047 21.1275C34.1072 20.9854 33.5298 20.9143 32.8724 20.9143C31.2023 20.9143 30.3672 21.4651 30.3672 22.5667C30.3672 23.0642 30.5182 23.4906 30.8203 23.8459C31.1401 24.2013 31.5309 24.4944 31.9929 24.7254C32.4548 24.9564 33.1033 25.2318 33.9384 25.5516C34.8978 25.9424 35.493 26.1912 35.724 26.2978C36.9677 26.9196 37.9627 27.7458 38.7089 28.7763C39.4729 29.7891 39.8549 31.1483 39.8549 32.8539C39.8549 34.4707 39.4907 35.8921 38.7622 37.1181C38.0338 38.344 36.9677 39.2945 35.5641 39.9697C34.1605 40.6448 32.4904 40.9824 30.5537 40.9824Z" fill="black"/>
<path d="M51.3681 40.9824C49.1116 40.9824 47.3882 40.3517 46.1978 39.0902C45.0252 37.811 44.4389 35.8743 44.4389 33.2803V21.3407H43.6926C43.1951 21.3407 42.8309 21.1542 42.5999 20.7811C42.3867 20.408 42.2801 19.8039 42.2801 18.9688V18.1693C42.2801 17.3342 42.3867 16.7301 42.5999 16.357C42.8309 15.9839 43.1951 15.7974 43.6926 15.7974H44.4389L45.0518 11.2934C45.194 10.2984 46.0468 9.8009 47.6103 9.8009H49.1028C49.9201 9.8009 50.5153 9.92527 50.8884 10.174C51.2792 10.4228 51.4747 10.7959 51.4747 11.2934V15.7974H53.7933C54.2908 15.7974 54.6461 15.9839 54.8593 16.357C55.0903 16.7301 55.2058 17.3342 55.2058 18.1693V18.9688C55.2058 19.8039 55.0903 20.408 54.8593 20.7811C54.6461 21.1542 54.2908 21.3407 53.7933 21.3407H51.4747V33.3603C51.4747 34.0887 51.5991 34.6129 51.8478 34.9327C52.1143 35.2525 52.5496 35.4124 53.1537 35.4124C53.3314 35.4124 53.5712 35.3857 53.8733 35.3324C54.1753 35.2614 54.3619 35.2258 54.4329 35.2258C54.7172 35.2258 54.966 35.4657 55.1792 35.9454C55.4101 36.4074 55.5878 36.9226 55.7122 37.4912C55.8543 38.0597 55.9254 38.4417 55.9254 38.6372C55.9254 40.2007 54.4063 40.9824 51.3681 40.9824Z" fill="black"/>
<path d="M66.0527 40.9824C63.6364 40.9824 61.8596 40.3517 60.7225 39.0902C59.6032 37.811 59.0435 36.1231 59.0435 34.0265C59.0435 32.4453 59.3722 31.0239 60.0296 29.7624C60.687 28.4832 62.0195 27.4082 64.0272 26.5377C66.0349 25.6671 68.9044 25.2318 72.6355 25.2318V23.6594C72.6355 22.7355 72.3423 22.0514 71.756 21.6072C71.1697 21.1631 70.2369 20.941 68.9577 20.941C67.8916 20.941 66.9766 21.0565 66.2126 21.2874C65.4486 21.5006 64.6225 21.7938 63.7341 22.1669C63.2721 22.3801 62.9879 22.4867 62.8813 22.4867C62.5614 22.4867 62.2061 22.2469 61.8152 21.7671C61.4421 21.2874 61.1134 20.7366 60.8291 20.1148C60.5449 19.4929 60.4027 19.0221 60.4027 18.7023C60.4027 18.1515 60.7936 17.6274 61.5754 17.1299C62.3749 16.6146 63.4676 16.206 64.8534 15.904C66.2393 15.5841 67.7761 15.4242 69.464 15.4242C73.0175 15.4242 75.6026 16.1349 77.2194 17.5563C78.8363 18.9599 79.6447 20.8877 79.6447 23.3395V32.2143C79.6447 33.689 79.6802 34.835 79.7513 35.6523C79.8401 36.4695 79.9556 37.278 80.0977 38.0775C80.1866 38.5572 80.231 38.8948 80.231 39.0902C80.231 39.4456 79.8934 39.7387 79.2182 39.9697C78.5609 40.2007 77.8058 40.3695 76.9529 40.4761C76.1001 40.5827 75.4161 40.636 74.9008 40.636C74.35 40.636 73.9503 40.405 73.7015 39.943C73.4705 39.4633 73.284 38.8148 73.1418 37.9975C73.1241 37.8909 73.1063 37.7843 73.0885 37.6777C73.0708 37.5711 73.0441 37.4645 73.0086 37.3579C72.8309 37.6955 72.4489 38.1486 71.8626 38.7171C71.2941 39.2857 70.5123 39.8098 69.5173 40.2895C68.5224 40.7515 67.3675 40.9824 66.0527 40.9824ZM68.3713 35.4124C69.2597 35.4124 70.0948 35.137 70.8765 34.5862C71.6583 34.0177 72.2446 33.2981 72.6355 32.4275V29.8157C68.2114 29.8157 65.9994 30.9795 65.9994 33.307C65.9994 33.9288 66.2037 34.4352 66.6124 34.8261C67.0388 35.217 67.6251 35.4124 68.3713 35.4124Z" fill="black"/>
<path d="M96.8078 40.9824C92.7747 40.9824 89.7809 39.943 87.8265 37.8643C85.8721 35.7677 84.8949 32.5963 84.8949 28.3499C84.8949 24.068 85.881 20.8432 87.8531 18.6756C89.8253 16.508 92.899 15.4242 97.0743 15.4242C98.2647 15.4242 99.464 15.5575 100.672 15.824C101.898 16.0727 102.911 16.4459 103.71 16.9433C104.528 17.4231 104.936 18.0094 104.936 18.7023C104.936 18.9866 104.776 19.4308 104.457 20.0348C104.155 20.6389 103.799 21.1808 103.391 21.6605C103 22.1225 102.671 22.3535 102.405 22.3535C102.28 22.3535 102.005 22.2291 101.578 21.9804C100.903 21.6605 100.264 21.4118 99.6595 21.2341C99.0554 21.0387 98.318 20.941 97.4474 20.941C95.5819 20.941 94.2227 21.5362 93.3699 22.7266C92.517 23.8992 92.0906 25.7115 92.0906 28.1634C92.0906 30.633 92.4904 32.463 93.2899 33.6534C94.1072 34.8261 95.4042 35.4124 97.1809 35.4124C98.1581 35.4124 99.011 35.3147 99.7394 35.1192C100.468 34.906 101.161 34.6395 101.818 34.3197C101.943 34.2664 102.094 34.2042 102.271 34.1332C102.449 34.0621 102.582 34.0265 102.671 34.0265C102.991 34.0265 103.337 34.2575 103.71 34.7195C104.101 35.1637 104.43 35.6789 104.696 36.2652C104.981 36.8515 105.123 37.3046 105.123 37.6244C105.123 38.4417 104.59 39.0991 103.524 39.5966C102.458 40.0941 101.267 40.4494 99.9526 40.6626C98.6379 40.8758 97.5896 40.9824 96.8078 40.9824Z" fill="black"/>
<path d="M111.866 40.6626C109.964 40.6626 109.014 40.1651 109.014 39.1702V6.38959C109.014 5.87434 109.245 5.49235 109.707 5.2436C110.169 4.97709 110.888 4.84384 111.866 4.84384H113.171C115.073 4.84384 116.023 5.35909 116.023 6.38959V25.1252L116.183 25.1785L121.94 16.6235C122.188 16.2504 122.535 16.0106 122.979 15.904C123.423 15.7796 124.036 15.7174 124.818 15.7174H126.577C128.354 15.7174 129.242 15.9573 129.242 16.437C129.242 16.6857 129.091 16.9878 128.789 17.3431L122.233 26.7509L129.935 38.957C130.201 39.4011 130.335 39.7298 130.335 39.943C130.335 40.4228 129.428 40.6626 127.616 40.6626H125.644C124.88 40.6626 124.258 40.6004 123.779 40.4761C123.299 40.3517 122.97 40.1118 122.792 39.7565L116.183 28.8563L116.023 28.9362V39.1702C116.023 40.1651 115.073 40.6626 113.171 40.6626H111.866Z" fill="black"/>
<path d="M147.578 40.7426C145.232 40.636 142.487 40.5827 139.343 40.5827C137.175 40.5827 134.919 40.636 132.573 40.7426C132.502 40.4583 132.467 40.2629 132.467 40.1562C132.467 40.0674 132.502 39.8453 132.573 39.49C133.16 39.4189 133.63 39.3478 133.986 39.2768C134.359 39.1879 134.821 39.0547 135.372 38.877C135.94 38.6993 136.367 38.4506 136.651 38.1308C136.935 37.7932 137.086 37.3934 137.104 36.9315C137.175 35.1725 137.211 29.3893 137.211 19.5818H133.613C133.506 19.2975 133.453 18.9866 133.453 18.649C133.453 18.2581 133.506 17.9294 133.613 17.6629H137.211V14.8646C137.211 12.9102 137.459 11.0624 137.957 9.32119C138.472 7.56223 139.209 5.98983 140.169 4.60398C141.146 3.21814 142.425 2.11657 144.007 1.29927C145.606 0.48198 147.4 0.0733337 149.39 0.0733337C151.238 0.0733337 152.784 0.544166 154.027 1.48583C155.289 2.40973 155.919 3.63567 155.919 5.16365C155.919 6.10532 155.609 6.92261 154.987 7.61553C154.365 8.30845 153.565 8.65492 152.588 8.65492C151.646 8.65492 150.891 8.42394 150.323 7.96199C149.772 7.48228 149.497 6.87819 149.497 6.14973C149.497 5.63448 149.648 5.137 149.95 4.65728C150.269 4.17757 150.714 3.83999 151.282 3.64455C150.927 3.05823 150.5 2.68512 150.003 2.52521C149.505 2.34754 148.733 2.25871 147.684 2.25871C146.05 2.25871 144.682 2.84502 143.58 4.01766C142.496 5.1903 141.954 6.73605 141.954 8.65492V17.6629H147.738C147.844 17.9294 147.898 18.2581 147.898 18.649C147.898 18.9866 147.844 19.2975 147.738 19.5818H141.954C141.954 28.3766 142.025 34.1598 142.168 36.9315C142.185 37.3934 142.363 37.7932 142.701 38.1308C143.038 38.4506 143.527 38.6993 144.166 38.877C144.806 39.0547 145.357 39.1879 145.819 39.2768C146.281 39.3478 146.867 39.4189 147.578 39.49C147.649 39.8453 147.684 40.0852 147.684 40.2096C147.684 40.3517 147.649 40.5294 147.578 40.7426Z" fill="black"/>
<path d="M152.348 18.649C155.795 18.2936 158.798 17.5652 161.356 16.4636C161.8 16.6413 162.111 16.8723 162.289 17.1565C162.289 26.3777 162.36 32.9694 162.502 36.9315C162.52 37.3934 162.653 37.7932 162.902 38.1308C163.169 38.4506 163.542 38.6993 164.021 38.877C164.501 39.0547 164.901 39.1879 165.221 39.2768C165.54 39.3478 165.958 39.4189 166.473 39.49C166.58 39.7032 166.633 39.9253 166.633 40.1562C166.633 40.3872 166.58 40.5827 166.473 40.7426C164.128 40.636 161.854 40.5827 159.651 40.5827C157.483 40.5827 155.227 40.636 152.881 40.7426C152.81 40.4583 152.775 40.2629 152.775 40.1562C152.775 40.0674 152.81 39.8453 152.881 39.49C153.468 39.4189 153.947 39.3478 154.32 39.2768C154.694 39.1879 155.155 39.0547 155.706 38.877C156.257 38.6993 156.675 38.4506 156.959 38.1308C157.243 37.7932 157.394 37.3934 157.412 36.9315C157.483 35.1725 157.519 33.0405 157.519 30.5353C157.519 29.7002 157.51 28.2788 157.492 26.2711C157.474 24.2634 157.465 22.5045 157.465 20.9943C156.452 20.3724 154.747 20.0082 152.348 19.9016C152.277 19.6173 152.242 19.3952 152.242 19.2353C152.242 19.1287 152.277 18.9333 152.348 18.649ZM156.532 7.50893C156.532 6.6028 156.852 5.82992 157.492 5.1903C158.149 4.55068 158.922 4.23087 159.81 4.23087C160.717 4.23087 161.489 4.55068 162.129 5.1903C162.769 5.82992 163.089 6.6028 163.089 7.50893C163.089 8.39729 162.769 9.17017 162.129 9.82755C161.489 10.4672 160.717 10.787 159.81 10.787C158.922 10.787 158.149 10.4672 157.492 9.82755C156.852 9.17017 156.532 8.39729 156.532 7.50893Z" fill="black"/>
<path d="M184.436 39.49C184.543 39.7032 184.596 39.9253 184.596 40.1562C184.596 40.3339 184.543 40.5294 184.436 40.7426C182.091 40.636 179.816 40.5827 177.613 40.5827C175.446 40.5827 173.189 40.636 170.844 40.7426C170.773 40.4583 170.737 40.2629 170.737 40.1562C170.737 40.0674 170.773 39.8453 170.844 39.49C171.43 39.4189 171.91 39.3478 172.283 39.2768C172.656 39.1879 173.118 39.0547 173.669 38.877C174.22 38.6993 174.637 38.4506 174.922 38.1308C175.206 37.7932 175.357 37.3934 175.375 36.9315C175.446 35.1725 175.481 33.0405 175.481 30.5353C175.481 29.7002 175.472 28.2788 175.455 26.2711C175.437 24.2634 175.428 22.5045 175.428 20.9943C174.415 20.3724 172.71 20.0082 170.311 19.9016C170.24 19.6173 170.204 19.3952 170.204 19.2353C170.204 19.1287 170.24 18.9333 170.311 18.649C173.758 18.2936 176.76 17.5652 179.319 16.4636C179.763 16.6413 180.074 16.8723 180.252 17.1565V21.3674C181.975 19.8572 183.627 18.649 185.209 17.7429C186.79 16.819 188.389 16.357 190.006 16.357C192.031 16.357 193.462 16.9256 194.297 18.0627C195.15 19.1998 195.594 20.9765 195.629 23.3928L195.896 36.9315C195.914 37.3934 196.047 37.7932 196.296 38.1308C196.562 38.4506 196.935 38.6993 197.415 38.877C197.912 39.0547 198.321 39.1879 198.641 39.2768C198.961 39.3478 199.378 39.4189 199.893 39.49C199.964 39.8453 200 40.0852 200 40.2096C200 40.3517 199.964 40.5294 199.893 40.7426C197.601 40.636 195.487 40.5827 193.551 40.5827C191.667 40.5827 189.58 40.636 187.288 40.7426C187.216 40.4583 187.181 40.2451 187.181 40.1029C187.181 39.9786 187.216 39.7743 187.288 39.49C187.749 39.4189 188.131 39.3478 188.434 39.2768C188.753 39.1879 189.109 39.0547 189.5 38.877C189.908 38.6993 190.21 38.4506 190.406 38.1308C190.619 37.7932 190.726 37.3934 190.726 36.9315L190.779 24.2723C190.779 21.0565 189.81 19.4485 187.874 19.4485C186.062 19.4485 183.521 20.6567 180.252 23.073C180.252 28.2433 180.323 32.8628 180.465 36.9315C180.483 37.3934 180.616 37.7932 180.865 38.1308C181.131 38.4506 181.504 38.6993 181.984 38.877C182.464 39.0547 182.863 39.1879 183.183 39.2768C183.503 39.3478 183.921 39.4189 184.436 39.49Z" fill="black"/>
</mask>
<g mask="url(#mask0)">
<rect x="16.6775" y="-15.0881" width="195.582" height="83.3876" fill="#E6E6E6"/>
</g>
</svg>
