<svg width="228" height="44" viewBox="0 0 228 44" fill="none" xmlns="http://www.w3.org/2000/svg">
<rect y="8" width="37" height="36" fill="#373737"/>
<rect y="25" width="37" height="19" fill="#F4B33B"/>
<rect x="17" y="32" width="12" height="20" transform="rotate(-90 17 32)" fill="#373737"/>
<rect y="25" width="20" height="2" fill="#373737"/>
<path d="M51.8101 43.8352C49.8371 43.8352 47.992 43.4873 46.2748 42.7915C44.5941 42.0957 43.1692 41.1253 42 39.8801L45.1787 35.6504C46.3479 36.7124 47.4257 37.4815 48.4122 37.9576C49.4352 38.397 50.3486 38.6167 51.1524 38.6167C52.1024 38.6167 52.8879 38.4702 53.509 38.1773C54.1301 37.8843 54.4407 37.4082 54.4407 36.7491C54.4407 36.1265 54.1849 35.6321 53.6734 35.2659C53.1985 34.8997 52.5773 34.6067 51.8101 34.387C51.0428 34.1307 50.2207 33.8743 49.3439 33.618C47.1517 32.9222 45.5623 31.9151 44.5758 30.5968C43.6259 29.2418 43.1509 27.7769 43.1509 26.2022C43.1509 24.9938 43.4615 23.7853 44.0826 22.5768C44.7402 21.3317 45.7633 20.3063 47.1517 19.5006C48.5766 18.6583 50.4034 18.2372 52.6321 18.2372C54.6417 18.2372 56.3406 18.4386 57.729 18.8414C59.1174 19.2443 60.4327 19.9035 61.6749 20.819L58.7703 25.3233C58.0761 24.774 57.2906 24.3163 56.4137 23.9501C55.5733 23.5472 54.7878 23.3275 54.0571 23.2909C53.0706 23.2543 52.3033 23.4374 51.7553 23.8402C51.2072 24.2064 50.9332 24.6459 50.9332 25.1586C50.8967 25.8543 51.1524 26.4037 51.7005 26.8065C52.285 27.2093 53.0158 27.5206 53.8927 27.7403C54.7695 27.96 55.6281 28.2164 56.4685 28.5094C58.1857 29.0953 59.5558 29.9376 60.5788 31.0362C61.6019 32.0982 62.1134 33.5264 62.1134 35.3208C62.1134 36.7857 61.7298 38.1773 60.9625 39.4956C60.2318 40.7774 59.0991 41.8211 57.5646 42.6267C56.0666 43.4324 54.1484 43.8352 51.8101 43.8352Z" fill="#373737"/>
<path d="M70.7871 8.78901H78.4598V19.226H84.2691V25.2135H78.4598V43.3408H70.7871V25.2135H67.0604V19.226H70.7871V8.78901Z" fill="#373737"/>
<path d="M100.193 44C97.9642 44 95.9364 43.5605 94.1096 42.6816C92.3193 41.7661 90.8944 40.3745 89.8348 38.5069C88.7752 36.6392 88.2455 34.2588 88.2455 31.3658C88.2455 28.6558 88.7935 26.3121 89.8896 24.3346C90.9857 22.3571 92.4289 20.8373 94.2192 19.7753C96.0095 18.6767 97.9094 18.1273 99.9189 18.1273C102.294 18.1273 104.084 18.5119 105.29 19.2809C106.532 20.0499 107.519 20.8922 108.249 21.8077L108.742 19.3358H115.867V43.3408H108.194V40.3745C107.829 40.7407 107.281 41.2168 106.55 41.8027C105.856 42.3887 104.979 42.9014 103.92 43.3408C102.86 43.7803 101.618 44 100.193 44ZM102.385 37.7378C105.052 37.7378 106.989 36.5293 108.194 34.1124V28.2347C107.756 27.0628 106.989 26.129 105.893 25.4332C104.833 24.7374 103.573 24.3895 102.111 24.3895C100.467 24.3895 99.042 25.0121 97.8363 26.2572C96.6306 27.4657 96.0277 29.0404 96.0277 30.9813C96.0277 32.263 96.32 33.4166 96.9046 34.4419C97.4892 35.4673 98.2565 36.273 99.2064 36.8589C100.193 37.4449 101.252 37.7378 102.385 37.7378Z" fill="#373737"/>
<path d="M144.106 41.1985C143.046 42.0408 141.713 42.7183 140.105 43.231C138.534 43.7437 136.981 44 135.447 44C131.354 44 128.066 42.8831 125.582 40.6492C123.134 38.4153 121.91 35.3025 121.91 31.3109C121.91 28.6375 122.513 26.367 123.718 24.4994C124.924 22.5951 126.495 21.1486 128.432 20.1598C130.405 19.171 132.469 18.6767 134.624 18.6767C136.78 18.6767 138.644 18.9696 140.215 19.5556C141.822 20.1415 143.192 20.9105 144.325 21.8627L140.598 26.8065C140.087 26.4037 139.374 26.0008 138.461 25.598C137.584 25.1586 136.543 24.9388 135.337 24.9388C133.766 24.9388 132.414 25.5431 131.281 26.7516C130.149 27.9234 129.582 29.4432 129.582 31.3109C129.582 33.1053 130.167 34.6251 131.336 35.8702C132.542 37.1153 134.131 37.7378 136.104 37.7378C137.785 37.7378 139.173 37.2801 140.269 36.3645L144.106 41.1985Z" fill="#373737"/>
<path d="M149.998 43.3408V0H157.671V27.1361L169.07 18.7316L173.729 22.8514L165.234 29.2784L174.606 43.3408H165.672L159.808 33.3433L157.671 34.9363V43.3408H149.998Z" fill="#373737"/>
<path d="M182.273 43.3408V24.2796H178.546V21.9176H182.273V11.0961C182.273 7.65377 182.857 5.18185 184.026 3.6804C185.232 2.14232 187.004 1.37328 189.342 1.37328C189.854 1.37328 190.402 1.44652 190.987 1.59301C191.571 1.70287 192.101 1.90429 192.576 2.19725L191.48 4.06492C191.005 3.69871 190.365 3.51561 189.562 3.51561C187.991 3.51561 186.803 4.06492 185.999 5.16354C185.232 6.26217 184.848 8.22139 184.848 11.0412V21.9176H191.699V24.2796H184.848V43.3408H182.273ZM196.796 13.9526C196.796 13.4399 196.997 13.0187 197.399 12.6891C197.801 12.3229 198.239 12.1398 198.714 12.1398C199.226 12.1398 199.664 12.3229 200.029 12.6891C200.395 13.0187 200.577 13.4399 200.577 13.9526C200.577 14.5019 200.395 14.9596 200.029 15.3258C199.664 15.6554 199.226 15.8202 198.714 15.8202C198.239 15.8202 197.801 15.6371 197.399 15.2709C196.997 14.9047 196.796 14.4653 196.796 13.9526ZM197.344 21.8627H199.92V43.3408H197.344V21.8627Z" fill="#373737"/>
<path d="M211.942 21.8627L212.161 26.6417C212.892 24.9571 214.08 23.6388 215.724 22.6866C217.404 21.7345 219.231 21.2584 221.204 21.2584C223.214 21.2584 224.84 21.8627 226.082 23.0712C227.324 24.243 227.963 25.7811 228 27.6854V43.3408H225.369V28.3995C225.333 27.0079 224.894 25.8543 224.054 24.9388C223.214 24.0233 221.99 23.5472 220.382 23.5106C218.957 23.5106 217.624 23.8585 216.381 24.5543C215.139 25.2501 214.134 26.2206 213.367 27.4657C212.636 28.7108 212.271 30.1573 212.271 31.8052V43.3408H209.695V21.8627H211.942Z" fill="#373737"/>
</svg>
