<svg width="207" height="43" viewBox="0 0 207 43" fill="none" xmlns="http://www.w3.org/2000/svg">
<path d="M17.2298 33.2358C17.2298 37.9937 13.3727 41.8507 8.61488 41.8507C3.85701 41.8507 0 37.9937 0 33.2358C0 28.4779 3.85701 24.6209 8.61488 24.6209C13.3727 24.6209 17.2298 28.4779 17.2298 33.2358Z" fill="#F08D7E"/>
<path d="M17.2298 20.7051C17.2298 25.4629 13.3727 29.3199 8.61488 29.3199C3.85701 29.3199 0 25.4629 0 20.7051C0 15.9472 3.85701 12.0902 8.61488 12.0902C13.3727 12.0902 17.2298 15.9472 17.2298 20.7051Z" fill="#F08D7E"/>
<mask id="mask0" mask-type="alpha" maskUnits="userSpaceOnUse" x="23" y="0" width="184" height="43">
<path d="M31.5654 42.2637C30.2989 42.2637 29.0416 42.126 27.7934 41.8507C26.5452 41.5753 25.5081 41.1807 24.6821 40.6667C23.8745 40.1528 23.4706 39.5654 23.4706 38.9046C23.4706 38.5008 23.6175 37.996 23.9112 37.3903C24.2049 36.7845 24.5536 36.2614 24.9574 35.8209C25.3796 35.362 25.7467 35.1325 26.0588 35.1325C26.224 35.1325 26.5819 35.261 27.1326 35.518C27.775 35.8117 28.3899 36.0503 28.9773 36.2339C29.5647 36.4174 30.2347 36.5092 30.9872 36.5092C31.9234 36.5092 32.6301 36.3348 33.1073 35.9861C33.5846 35.6373 33.8232 35.1234 33.8232 34.4442C33.8232 33.9302 33.6763 33.5081 33.3826 33.1777C33.1073 32.8289 32.7494 32.5444 32.3088 32.3241C31.8683 32.1039 31.2442 31.8377 30.4366 31.5257L29.6381 31.2228C28.5918 30.819 27.6741 30.3601 26.8848 29.8461C26.0955 29.3322 25.4255 28.5888 24.8748 27.6159C24.3242 26.6247 24.0488 25.3766 24.0488 23.8714C24.0488 22.201 24.4068 20.7693 25.1226 19.5762C25.8569 18.3647 26.894 17.447 28.2339 16.8229C29.5739 16.1804 31.1524 15.8592 32.9696 15.8592C34.0159 15.8592 35.1081 15.9602 36.2461 16.1621C37.3842 16.364 38.3386 16.676 39.1096 17.0982C39.8989 17.5204 40.2935 18.0527 40.2935 18.6951C40.2935 19.0622 40.1742 19.5578 39.9356 20.1819C39.7153 20.806 39.44 21.3567 39.1096 21.8339C38.7792 22.3112 38.4671 22.5498 38.1734 22.5498C38.0817 22.5498 37.8247 22.4672 37.4025 22.302C36.8335 22.0634 36.2828 21.8798 35.7505 21.7513C35.2366 21.6045 34.64 21.5311 33.9608 21.5311C32.2354 21.5311 31.3727 22.1001 31.3727 23.2381C31.3727 23.7521 31.5287 24.1926 31.8408 24.5597C32.1712 24.9268 32.575 25.2297 33.0522 25.4683C33.5295 25.707 34.1995 25.9915 35.0622 26.3219C36.0534 26.7257 36.6683 26.9827 36.9069 27.0928C38.1918 27.7352 39.2197 28.5888 39.9906 29.6534C40.7799 30.6997 41.1746 32.1039 41.1746 33.866C41.1746 35.5364 40.7983 37.0048 40.0457 38.2713C39.2931 39.5379 38.1918 40.5199 36.7417 41.2174C35.2916 41.9149 33.5662 42.2637 31.5654 42.2637Z" fill="black"/>
<path d="M53.069 42.2637C50.7378 42.2637 48.9573 41.612 47.7275 40.3088C46.516 38.9872 45.9103 36.9864 45.9103 34.3065V21.9716H45.1394C44.6254 21.9716 44.2491 21.7789 44.0105 21.3934C43.7902 21.0079 43.6801 20.3838 43.6801 19.5211V18.6951C43.6801 17.8324 43.7902 17.2083 44.0105 16.8229C44.2491 16.4374 44.6254 16.2447 45.1394 16.2447H45.9103L46.5436 11.5915C46.6904 10.5636 47.5715 10.0497 49.1868 10.0497H50.7286C51.573 10.0497 52.1879 10.1782 52.5734 10.4351C52.9772 10.6921 53.1791 11.0776 53.1791 11.5915V16.2447H55.5745C56.0885 16.2447 56.4556 16.4374 56.6758 16.8229C56.9145 17.2083 57.0338 17.8324 57.0338 18.6951V19.5211C57.0338 20.3838 56.9145 21.0079 56.6758 21.3934C56.4556 21.7789 56.0885 21.9716 55.5745 21.9716H53.1791V34.3891C53.1791 35.1417 53.3076 35.6832 53.5646 36.0136C53.8399 36.344 54.2896 36.5092 54.9137 36.5092C55.0973 36.5092 55.3451 36.4817 55.6571 36.4266C55.9692 36.3532 56.1619 36.3165 56.2353 36.3165C56.529 36.3165 56.786 36.5643 57.0062 37.0599C57.2449 37.5371 57.4284 38.0694 57.5569 38.6568C57.7038 39.2442 57.7772 39.6388 57.7772 39.8407C57.7772 41.456 56.2078 42.2637 53.069 42.2637Z" fill="black"/>
<path d="M68.2398 42.2637C65.7435 42.2637 63.9079 41.612 62.7332 40.3088C61.5768 38.9872 60.9986 37.2434 60.9986 35.0775C60.9986 33.4438 61.3382 31.9754 62.0173 30.6721C62.6965 29.3505 64.0731 28.24 66.1473 27.3406C68.2215 26.4412 71.1859 25.9915 75.0406 25.9915V24.367C75.0406 23.4125 74.7377 22.7058 74.132 22.2469C73.5262 21.788 72.5626 21.5586 71.241 21.5586C70.1396 21.5586 69.1943 21.6779 68.405 21.9165C67.6158 22.1368 66.7622 22.4397 65.8444 22.8251C65.3672 23.0454 65.0735 23.1555 64.9634 23.1555C64.633 23.1555 64.2659 22.9077 63.862 22.4121C63.4766 21.9165 63.137 21.3475 62.8433 20.7051C62.5496 20.0626 62.4028 19.5762 62.4028 19.2458C62.4028 18.6768 62.8066 18.1353 63.6142 17.6213C64.4402 17.089 65.5691 16.6668 67.0008 16.3548C68.4326 16.0244 70.0203 15.8592 71.7641 15.8592C75.4352 15.8592 78.106 16.5934 79.7763 18.0619C81.4467 19.512 82.2818 21.5035 82.2818 24.0366V33.2052C82.2818 34.7287 82.3186 35.9126 82.392 36.757C82.4838 37.6014 82.6031 38.4365 82.7499 39.2625C82.8417 39.7581 82.8876 40.1069 82.8876 40.3088C82.8876 40.6759 82.5388 40.9788 81.8413 41.2174C81.1622 41.456 80.382 41.6304 79.501 41.7405C78.6199 41.8507 77.9132 41.9057 77.3809 41.9057C76.8119 41.9057 76.3989 41.6671 76.1419 41.1899C75.9033 40.6943 75.7106 40.0243 75.5637 39.1799C75.5454 39.0698 75.527 38.9597 75.5086 38.8495C75.4903 38.7394 75.4628 38.6293 75.426 38.5191C75.2425 38.8679 74.8478 39.336 74.2421 39.9233C73.6547 40.5107 72.8471 41.0522 71.8192 41.5478C70.7913 42.025 69.5982 42.2637 68.2398 42.2637ZM70.6352 36.5092C71.553 36.5092 72.4157 36.2247 73.2234 35.6557C74.031 35.0683 74.6368 34.3249 75.0406 33.4255V30.7272C70.47 30.7272 68.1848 31.9295 68.1848 34.3341C68.1848 34.9765 68.3959 35.4996 68.818 35.9035C69.2586 36.3073 69.8643 36.5092 70.6352 36.5092Z" fill="black"/>
<path d="M100.013 42.2637C95.8466 42.2637 92.7537 41.1899 90.7346 39.0423C88.7155 36.8763 87.7059 33.5998 87.7059 29.2129C87.7059 24.7892 88.7246 21.4576 90.7621 19.2183C92.7996 16.9789 95.9751 15.8592 100.289 15.8592C101.518 15.8592 102.757 15.9969 104.006 16.2722C105.272 16.5292 106.318 16.9146 107.144 17.4286C107.989 17.9242 108.411 18.5299 108.411 19.2458C108.411 19.5395 108.246 19.9984 107.915 20.6225C107.603 21.2466 107.236 21.8064 106.814 22.302C106.41 22.7792 106.071 23.0179 105.795 23.0179C105.667 23.0179 105.382 22.8894 104.942 22.6324C104.244 22.302 103.583 22.045 102.959 21.8615C102.335 21.6596 101.574 21.5586 100.674 21.5586C98.7468 21.5586 97.3426 22.1735 96.4615 23.4033C95.5805 24.6148 95.1399 26.4871 95.1399 29.0201C95.1399 31.5716 95.5529 33.4622 96.3789 34.692C97.2233 35.9035 98.5632 36.5092 100.399 36.5092C101.408 36.5092 102.289 36.4082 103.042 36.2063C103.795 35.9861 104.51 35.7107 105.19 35.3803C105.318 35.3253 105.474 35.261 105.658 35.1876C105.841 35.1142 105.979 35.0775 106.071 35.0775C106.401 35.0775 106.759 35.3161 107.144 35.7933C107.548 36.2522 107.888 36.7845 108.163 37.3903C108.457 37.996 108.604 38.4641 108.604 38.7945C108.604 39.6388 108.053 40.318 106.952 40.8319C105.85 41.3459 104.621 41.713 103.262 41.9333C101.904 42.1535 100.821 42.2637 100.013 42.2637Z" fill="black"/>
<path d="M115.57 41.9333C113.606 41.9333 112.624 41.4193 112.624 40.3914V6.5254C112.624 5.99309 112.862 5.59845 113.339 5.34147C113.817 5.06613 114.56 4.92847 115.57 4.92847H116.919C118.883 4.92847 119.865 5.46078 119.865 6.5254V25.8813L120.03 25.9364L125.977 17.0982C126.234 16.7127 126.592 16.4649 127.051 16.3548C127.51 16.2263 128.143 16.1621 128.951 16.1621H130.768C132.604 16.1621 133.521 16.4099 133.521 16.9055C133.521 17.1624 133.365 17.4745 133.053 17.8416L126.28 27.5609L134.237 40.1711C134.513 40.63 134.65 40.9696 134.65 41.1899C134.65 41.6855 133.714 41.9333 131.842 41.9333H129.804C129.015 41.9333 128.373 41.869 127.877 41.7405C127.381 41.612 127.042 41.3642 126.858 40.9971L120.03 29.736L119.865 29.8186V40.3914C119.865 41.4193 118.883 41.9333 116.919 41.9333H115.57Z" fill="black"/>
<path d="M152.464 42.0159C150.041 41.9057 147.205 41.8507 143.957 41.8507C141.717 41.8507 139.386 41.9057 136.963 42.0159C136.89 41.7222 136.853 41.5203 136.853 41.4101C136.853 41.3184 136.89 41.0889 136.963 40.7218C137.569 40.6484 138.055 40.575 138.422 40.5015C138.808 40.4098 139.285 40.2721 139.854 40.0885C140.441 39.905 140.882 39.648 141.176 39.3176C141.469 38.9688 141.625 38.5558 141.644 38.0786C141.717 36.2614 141.754 30.2867 141.754 20.1544H138.037C137.927 19.8607 137.872 19.5395 137.872 19.1907C137.872 18.7869 137.927 18.4473 138.037 18.172H141.754V15.281C141.754 13.2619 142.011 11.3529 142.525 9.55407C143.057 7.73687 143.819 6.1124 144.81 4.68067C145.82 3.24893 147.141 2.11089 148.775 1.26653C150.427 0.422178 152.281 0 154.337 0C156.246 0 157.843 0.486422 159.127 1.45927C160.431 2.41376 161.082 3.68029 161.082 5.25887C161.082 6.23171 160.761 7.07607 160.119 7.79193C159.476 8.5078 158.65 8.86573 157.641 8.86573C156.668 8.86573 155.888 8.62711 155.3 8.14987C154.731 7.65427 154.447 7.03018 154.447 6.2776C154.447 5.74529 154.603 5.23133 154.915 4.73573C155.245 4.24013 155.704 3.89138 156.291 3.68947C155.924 3.08373 155.484 2.69827 154.97 2.53307C154.456 2.34951 153.657 2.25773 152.574 2.25773C150.886 2.25773 149.472 2.86347 148.334 4.07493C147.215 5.2864 146.655 6.88333 146.655 8.86573V18.172H152.63C152.74 18.4473 152.795 18.7869 152.795 19.1907C152.795 19.5395 152.74 19.8607 152.63 20.1544H146.655C146.655 29.2404 146.728 35.2151 146.875 38.0786C146.893 38.5558 147.077 38.9688 147.426 39.3176C147.774 39.648 148.279 39.905 148.94 40.0885C149.601 40.2721 150.17 40.4098 150.647 40.5015C151.124 40.575 151.73 40.6484 152.464 40.7218C152.538 41.0889 152.574 41.3367 152.574 41.4652C152.574 41.612 152.538 41.7956 152.464 42.0159Z" fill="black"/>
<path d="M157.393 19.1907C160.954 18.8236 164.056 18.071 166.699 16.933C167.158 17.1166 167.479 17.3552 167.663 17.6489C167.663 27.1754 167.736 33.9853 167.883 38.0786C167.901 38.5558 168.039 38.9688 168.296 39.3176C168.571 39.648 168.957 39.905 169.452 40.0885C169.948 40.2721 170.361 40.4098 170.691 40.5015C171.022 40.575 171.453 40.6484 171.985 40.7218C172.096 40.9421 172.151 41.1715 172.151 41.4101C172.151 41.6488 172.096 41.8507 171.985 42.0159C169.563 41.9057 167.213 41.8507 164.937 41.8507C162.698 41.8507 160.366 41.9057 157.943 42.0159C157.87 41.7222 157.833 41.5203 157.833 41.4101C157.833 41.3184 157.87 41.0889 157.943 40.7218C158.549 40.6484 159.045 40.575 159.43 40.5015C159.816 40.4098 160.293 40.2721 160.862 40.0885C161.431 39.905 161.862 39.648 162.156 39.3176C162.45 38.9688 162.606 38.5558 162.624 38.0786C162.698 36.2614 162.734 34.0587 162.734 31.4706C162.734 30.6079 162.725 29.1394 162.707 27.0653C162.688 24.9911 162.679 23.1739 162.679 21.6137C161.633 20.9712 159.871 20.5949 157.393 20.4848C157.319 20.1911 157.283 19.9617 157.283 19.7965C157.283 19.6863 157.319 19.4844 157.393 19.1907ZM161.716 7.6818C161.716 6.74567 162.046 5.9472 162.707 5.2864C163.386 4.6256 164.184 4.2952 165.102 4.2952C166.038 4.2952 166.837 4.6256 167.498 5.2864C168.158 5.9472 168.489 6.74567 168.489 7.6818C168.489 8.59958 168.158 9.39805 167.498 10.0772C166.837 10.738 166.038 11.0684 165.102 11.0684C164.184 11.0684 163.386 10.738 162.707 10.0772C162.046 9.39805 161.716 8.59958 161.716 7.6818Z" fill="black"/>
<path d="M190.543 40.7218C190.653 40.9421 190.708 41.1715 190.708 41.4101C190.708 41.5937 190.653 41.7956 190.543 42.0159C188.12 41.9057 185.77 41.8507 183.494 41.8507C181.255 41.8507 178.924 41.9057 176.501 42.0159C176.428 41.7222 176.391 41.5203 176.391 41.4101C176.391 41.3184 176.428 41.0889 176.501 40.7218C177.107 40.6484 177.602 40.575 177.988 40.5015C178.373 40.4098 178.85 40.2721 179.419 40.0885C179.988 39.905 180.42 39.648 180.714 39.3176C181.007 38.9688 181.163 38.5558 181.182 38.0786C181.255 36.2614 181.292 34.0587 181.292 31.4706C181.292 30.6079 181.283 29.1394 181.264 27.0653C181.246 24.9911 181.237 23.1739 181.237 21.6137C180.19 20.9712 178.428 20.5949 175.95 20.4848C175.877 20.1911 175.84 19.9617 175.84 19.7965C175.84 19.6863 175.877 19.4844 175.95 19.1907C179.511 18.8236 182.613 18.071 185.257 16.933C185.715 17.1166 186.037 17.3552 186.22 17.6489V21.9991C188.001 20.4389 189.708 19.1907 191.341 18.2546C192.975 17.3001 194.627 16.8229 196.297 16.8229C198.39 16.8229 199.868 17.4102 200.73 18.585C201.611 19.7598 202.07 21.5953 202.107 24.0917L202.382 38.0786C202.401 38.5558 202.538 38.9688 202.795 39.3176C203.071 39.648 203.456 39.905 203.952 40.0885C204.466 40.2721 204.888 40.4098 205.218 40.5015C205.549 40.575 205.98 40.6484 206.512 40.7218C206.586 41.0889 206.622 41.3367 206.622 41.4652C206.622 41.612 206.586 41.7956 206.512 42.0159C204.144 41.9057 201.96 41.8507 199.959 41.8507C198.014 41.8507 195.857 41.9057 193.489 42.0159C193.416 41.7222 193.379 41.5019 193.379 41.3551C193.379 41.2266 193.416 41.0155 193.489 40.7218C193.966 40.6484 194.361 40.575 194.673 40.5015C195.003 40.4098 195.37 40.2721 195.774 40.0885C196.196 39.905 196.508 39.648 196.71 39.3176C196.931 38.9688 197.041 38.5558 197.041 38.0786L197.096 25.0003C197.096 21.6779 196.095 20.0167 194.095 20.0167C192.222 20.0167 189.598 21.2649 186.22 23.7613C186.22 29.1027 186.294 33.8752 186.44 38.0786C186.459 38.5558 186.596 38.9688 186.853 39.3176C187.129 39.648 187.514 39.905 188.01 40.0885C188.505 40.2721 188.918 40.4098 189.249 40.5015C189.579 40.575 190.011 40.6484 190.543 40.7218Z" fill="black"/>
</mask>
<g mask="url(#mask0)">
<path d="M17.2297 -16.1039H136.272V70.0448H17.2297V-16.1039Z" fill="#E6E6E6"/>
<path d="M-36.0258 -64.6605H231.818V54.3814H-36.0258V-64.6605Z" fill="#F08D7E"/>
</g>
</svg>
